<svg xmlns="http://www.w3.org/2000/svg" viewBox="0 0 100 100">
  <!-- Gradient Definitions -->
  <defs>
    <linearGradient id="lockGradient" x1="0%" y1="0%" x2="100%" y2="100%">
      <stop offset="0%" style="stop-color:#4CAF50;stop-opacity:1" />
      <stop offset="100%" style="stop-color:#2E7D32;stop-opacity:1" />
    </linearGradient>
    <linearGradient id="bodyGradient" x1="0%" y1="0%" x2="100%" y2="100%">
      <stop offset="0%" style="stop-color:#2196F3;stop-opacity:1" />
      <stop offset="100%" style="stop-color:#1565C0;stop-opacity:1" />
    </linearGradient>
    <radialGradient id="shieldGradient" cx="50%" cy="50%" r="50%">
      <stop offset="0%" style="stop-color:#1976D2;stop-opacity:0.8" />
      <stop offset="100%" style="stop-color:#0D47A1;stop-opacity:0.3" />
    </radialGradient>
  </defs>
  
  <!-- Background Circle -->
  <circle cx="50" cy="50" r="48" fill="url(#shieldGradient)" stroke="#0D47A1" stroke-width="2"/>
  
  <!-- Lock Shackle (Top Part) -->
  <path d="M35 35 Q35 25 50 25 Q65 25 65 35 L65 40 L60 40 L60 35 Q60 30 50 30 Q40 30 40 35 L40 40 L35 40 Z" 
        fill="url(#lockGradient)" stroke="#1B5E20" stroke-width="1"/>
  
  <!-- Lock Body -->
  <rect x="30" y="40" width="40" height="28" rx="4" ry="4" 
        fill="url(#bodyGradient)" stroke="#0D47A1" stroke-width="1"/>
  
  <!-- Keyhole -->
  <circle cx="50" cy="50" r="4" fill="#FFF" opacity="0.9"/>
  <rect x="48" y="52" width="4" height="8" rx="2" fill="#FFF" opacity="0.9"/>
  
  <!-- Security Dots/Indicators -->
  <circle cx="38" cy="46" r="1.5" fill="#4CAF50" opacity="0.8"/>
  <circle cx="62" cy="46" r="1.5" fill="#4CAF50" opacity="0.8"/>
  <circle cx="38" cy="62" r="1.5" fill="#4CAF50" opacity="0.8"/>
  <circle cx="62" cy="62" r="1.5" fill="#4CAF50" opacity="0.8"/>
  
  <!-- Shine Effect -->
  <ellipse cx="45" cy="45" rx="8" ry="6" fill="#FFF" opacity="0.2"/>
</svg> 